<svg width="32" height="32" viewBox="0 0 32 32" fill="none" xmlns="http://www.w3.org/2000/svg">
  <rect width="32" height="32" rx="8" fill="url(#paint0_linear)" />
  <g transform="translate(3.3,30) scale(0.0025,-0.0025)" fill="#0B0F1A" stroke="none">
    <path d="M4875 8735 c-283 -50 -505 -166 -711 -370 -243 -241 -385 -562 -401
    -905 -23 -508 256 -994 707 -1229 204 -106 395 -153 620 -153 337 0 614 98
    876 313 510 417 632 1139 287 1712 -189 313 -502 534 -878 618 -119 27 -385
    34 -500 14z m445 -545 c363 -104 629 -466 607 -825 -10 -177 -90 -355 -221
    -492 -117 -124 -238 -199 -391 -244 -67 -20 -103 -23 -220 -24 -119 0 -151 4
    -215 23 -158 50 -272 122 -386 246 -83 89 -134 176 -176 296 -31 91 -33 102
    -32 240 0 137 2 150 33 240 37 110 74 177 143 263 117 148 281 251 463 291 99
    22 294 15 395 -14z"/>
    <path d="M2671 6995 c-95 -21 -158 -44 -241 -85 -446 -223 -636 -782 -417
    -1230 53 -108 139 -223 231 -306 l73 -66 -22 -47 c-42 -88 -372 -833 -642
    -1451 -85 -195 -237 -542 -338 -770 -226 -515 -255 -608 -255 -825 1 -216 66
    -421 196 -623 51 -77 223 -247 309 -304 364 -240 821 -285 1205 -119 276 120
    435 276 580 566 47 95 106 195 144 246 264 351 751 597 1306 659 124 14 459
    14 580 0 390 -45 746 -169 1010 -351 235 -162 353 -302 490 -584 48 -100 88
    -164 137 -225 226 -277 577 -424 973 -407 353 16 624 136 858 380 127 133 205
    264 260 437 42 133 56 239 49 384 -10 211 -2 187 -402 1081 -131 292 -267 595
    -303 675 -77 173 -173 387 -252 565 -32 72 -104 231 -160 355 -56 124 -116
    256 -133 294 l-31 69 24 16 c51 32 182 167 231 238 110 159 161 319 160 507 0
    61 -6 143 -14 182 -72 340 -350 632 -692 726 -67 18 -107 22 -240 22 -189 0
    -239 -11 -390 -84 -259 -126 -431 -340 -511 -640 -27 -99 -24 -328 5 -435 26
    -99 88 -229 145 -309 51 -71 170 -188 238 -235 132 -89 336 -157 492 -163 l79
    -3 47 -105 c64 -144 406 -920 490 -1110 212 -482 279 -634 451 -1020 103 -234
    195 -452 204 -485 26 -98 30 -200 11 -290 -53 -260 -250 -448 -533 -507 -233
    -48 -465 14 -619 167 -64 63 -79 87 -162 252 -114 226 -186 333 -308 462 -407
    429 -998 647 -1804 668 -760 20 -1373 -160 -1821 -536 -185 -154 -316 -327
    -455 -601 -70 -138 -87 -163 -154 -230 -131 -131 -289 -195 -480 -193 -197 1
    -349 63 -481 193 -125 125 -182 262 -182 440 0 114 23 205 87 347 24 54 77
    177 119 273 41 96 177 411 302 700 125 289 282 653 350 810 223 517 326 755
    330 758 1 2 51 7 111 12 267 22 471 121 652 315 258 277 312 659 142 1010
    -119 246 -361 449 -615 516 -106 27 -322 35 -414 14z m351 -552 c175 -82 282
    -272 250 -443 -26 -140 -105 -246 -229 -307 -67 -33 -85 -38 -168 -41 -70 -3
    -106 0 -146 13 -293 97 -389 457 -180 678 91 97 195 139 328 133 65 -3 95 -10
    145 -33z m4437 18 c258 -80 380 -362 255 -591 -36 -67 -130 -155 -201 -188
    -53 -24 -69 -27 -173 -27 -110 0 -119 2 -181 32 -83 41 -159 121 -202 210 -29
    62 -32 76 -31 163 0 74 5 108 23 152 78 200 307 312 510 249z"/>
    <path d="M3324 4834 c-56 -20 -114 -72 -146 -130 -25 -48 -215 -509 -541
    -1319 -185 -459 -334 -828 -410 -1015 -42 -102 -51 -136 -51 -185 0 -96 57
    -179 152 -221 55 -25 166 -23 218 4 79 40 112 92 206 323 48 118 169 414 269
    659 99 245 206 506 236 580 293 717 329 800 348 800 9 0 35 -41 66 -102 132
    -263 297 -450 529 -600 155 -101 299 -161 495 -208 406 -97 809 -53 1180 129
    155 76 276 162 395 281 116 116 212 250 282 393 34 68 58 106 67 105 14 -3
    190 -425 855 -2052 92 -225 129 -280 214 -313 172 -66 352 47 352 222 0 79 19
    32 -843 2097 -95 229 -186 432 -200 452 -35 45 -87 85 -134 102 -27 9 -98 13
    -248 13 -190 1 -214 -1 -255 -20 -77 -34 -116 -83 -191 -233 -90 -180 -146
    -262 -244 -361 -144 -144 -331 -252 -520 -301 -123 -32 -338 -43 -465 -25
    -330 49 -628 234 -802 500 -27 42 -76 131 -108 198 -70 146 -120 203 -201 227
    -73 22 -444 22 -505 0z"/>
  </g>
  <defs>
    <linearGradient id="paint0_linear" x1="0" y1="0" x2="32" y2="32" gradientUnits="userSpaceOnUse">
      <stop stop-color="#00FFF7"/>
      <stop offset="1" stop-color="#9F4EFF"/>
    </linearGradient>
  </defs>
</svg>
